# xmcd
#
# Track frame offsets: 
#        150
#        17420
#        31400
#        44540
#        61870
#        71207
#        82885
#        110467
#
# Disc length: 1664 seconds
#
# Revision: 1
# Processed by: cddbd v1.5PL3 Copyright (c) Steve Scherf et al.
# Submitted via: ExactAudioCopy v0.90b4
#
DISCID=60067e08
DTITLE=Merle Haggard - Amber Waves Of Grain
DYEAR=1900
DGENRE=Country
TTITLE0=Amber Waves Of Grain
TTITLE1=Medley: Tulare Dust/Mama Tried
TTITLE2=The Farmer's Daughter
TTITLE3=Medley: The Okie From Muskogee's Comin' Home/Okie From Muskoge
TTITLE3=e
TTITLE4=Gone With The Wind
TTITLE5=I Wish Things Were Simple Again
TTITLE6=Medley: Working Man's Blues/Always Late With Your Kisses
TTITLE7=American Waltz
EXTD=
EXTT0=
EXTT1=
EXTT2=
EXTT3=
EXTT4=
EXTT5=
EXTT6=
EXTT7=
PLAYORDER=
